name rise34.3697peak60.0498fall86.3158.mot
datacolumns 19
datarows 14
range 0.86999700000000 0.89166700000000
endheader
time	ground_force1_vx	ground_force1_vy	ground_force1_vz	ground_force1_px	ground_force1_py	ground_force1_pz	ground_force2_vx	ground_force2_vy	ground_force2_vz	ground_force2_px	ground_force2_py	ground_force2_pz	ground_torque1_x	ground_torque1_y	ground_torque1_z	ground_torque2_x	ground_torque2_y	ground_torque2_z	
0.86999700000000	-12.15072600000000	44.81945900000000	-10.27670000000000	0.42197400000000	0.00000000000000	0.08616700000000	-58.54791500000000	813.09137899999996	-55.17556500000000	0.18454400000000	0.00000000000000	-0.08568700000000	0.00000000000000	-8.22019200000000	0.00000000000000	0.00000000000000	-28.25097400000000	0.00000000000000	
0.87166700000000	-13.12263600000000	51.17763300000000	-11.28185600000000	0.42328100000000	0.00000000000000	0.08704200000000	-58.94980300000000	809.61199799999997	-54.76930400000000	0.18381500000000	0.00000000000000	-0.08562100000000	0.00000000000000	-9.05880600000000	0.00000000000000	0.00000000000000	-28.09865100000000	0.00000000000000	
0.87332900000000	-13.88362900000000	57.46522600000000	-12.15231800000000	0.42450900000000	0.00000000000000	0.08786800000000	-59.35256300000000	805.99443099999996	-54.34288800000000	0.18308100000000	0.00000000000000	-0.08555000000000	0.00000000000000	-9.79890100000000	0.00000000000000	0.00000000000000	-27.94232200000000	0.00000000000000	
0.87499300000000	-14.41623700000000	63.62105100000000	-12.87231800000000	0.42567100000000	0.00000000000000	0.08864900000000	-59.75627500000000	802.23932300000001	-53.89623500000000	0.18234300000000	0.00000000000000	-0.08547700000000	0.00000000000000	-10.42812800000000	0.00000000000000	0.00000000000000	-27.78205400000000	0.00000000000000	
0.87666400000000	-14.71442200000000	69.60902400000001	-13.43453800000000	0.42677900000000	0.00000000000000	0.08939000000000	-60.16096800000000	798.34730400000001	-53.42928300000000	0.18160200000000	0.00000000000000	-0.08540000000000	0.00000000000000	-10.94069900000000	0.00000000000000	0.00000000000000	-27.61790700000000	0.00000000000000	
0.87833600000000	-14.78253700000000	75.41746400000000	-13.83948700000000	0.42784200000000	0.00000000000000	0.09009500000000	-60.56661900000000	794.31898600000000	-52.94198900000000	0.18085800000000	0.00000000000000	-0.08532000000000	0.00000000000000	-11.33691400000000	0.00000000000000	0.00000000000000	-27.44993800000000	0.00000000000000	
0.88002500000000	-14.63362500000000	81.05650400000000	-14.09434200000000	0.42887000000000	0.00000000000000	0.09076700000000	-60.97314500000000	790.15495699999997	-52.43433300000000	0.18010900000000	0.00000000000000	-0.08523600000000	0.00000000000000	-11.62226200000000	0.00000000000000	0.00000000000000	-27.27820000000000	0.00000000000000	
0.88166400000000	-14.28728500000000	86.55414300000000	-14.21143600000000	0.42986700000000	0.00000000000000	0.09140800000000	-61.38040500000000	785.85577999999998	-51.90632000000000	0.17935800000000	0.00000000000000	-0.08514800000000	0.00000000000000	-11.80625200000000	0.00000000000000	0.00000000000000	-27.10273700000000	0.00000000000000	
0.88332800000000	-13.76737300000000	91.95150400000000	-14.20659800000000	0.43084000000000	0.00000000000000	0.09202100000000	-61.78819700000000	781.42198599999995	-51.35797600000000	0.17860400000000	0.00000000000000	-0.08505700000000	0.00000000000000	-11.90111900000000	0.00000000000000	0.00000000000000	-26.92359100000000	0.00000000000000	
0.88499600000000	-13.09975700000000	97.29783700000000	-14.09748100000000	0.43179300000000	0.00000000000000	0.09260700000000	-62.19625500000000	776.85408099999995	-50.78935600000000	0.17784700000000	0.00000000000000	-0.08496100000000	0.00000000000000	-11.92052900000000	0.00000000000000	0.00000000000000	-26.74079600000000	0.00000000000000	
0.88666300000000	-12.31028000000000	102.64570399999999	-13.90204400000000	0.43272900000000	0.00000000000000	0.09317000000000	-62.60424700000000	772.15253299999995	-50.20053900000000	0.17708800000000	0.00000000000000	-0.08486200000000	0.00000000000000	-11.87839200000000	0.00000000000000	0.00000000000000	-26.55438100000000	0.00000000000000	
0.88835500000000	-11.42308600000000	108.04670299999999	-13.63726200000000	0.43365200000000	0.00000000000000	0.09371000000000	-63.01177400000000	767.31778299999996	-49.59163400000000	0.17632700000000	0.00000000000000	-0.08475800000000	0.00000000000000	-11.78785400000000	0.00000000000000	0.00000000000000	-26.36436900000000	0.00000000000000	
0.88999800000000	-10.45934900000000	113.54798599999999	-13.31813400000000	0.43456400000000	0.00000000000000	0.09422800000000	-63.41837000000000	762.35023600000000	-48.96277700000000	0.17556400000000	0.00000000000000	-0.08465100000000	0.00000000000000	-11.66052400000000	0.00000000000000	0.00000000000000	-26.17077600000000	0.00000000000000	
0.89166700000000	-9.43645900000000	119.18967200000000	-12.95701700000000	0.43546700000000	0.00000000000000	0.09472600000000	-63.82349600000000	757.25026500000001	-48.31413600000000	0.17480100000000	0.00000000000000	-0.08453900000000	0.00000000000000	-11.50594600000000	0.00000000000000	0.00000000000000	-25.97361200000000	0.00000000000000	
